<svg width="45" height="40" viewBox="0 0 45 40" fill="none" xmlns="http://www.w3.org/2000/svg">
<path d="M24.2885 19.3048L29.8329 14.3905L11.9248 5.4692C10.7379 4.90082 9.62601 4.82105 8.65101 5.44261L24.2885 19.3048ZM30.7779 25.0584L36.5416 22.1849C37.6666 21.6265 38.2835 20.8354 38.2835 19.9579C38.2835 19.0821 37.6666 18.2893 36.5435 17.7309L31.3254 15.1333L25.451 20.3385L30.7779 25.0584ZM7.68726 6.65084C7.56726 6.97824 7.49976 7.34386 7.49976 7.74439V32.1831C7.49976 32.8163 7.65726 33.3614 7.94226 33.7952L23.1241 20.3368L7.68726 6.65084ZM24.2885 21.3672L9.19101 34.7508C9.47976 34.8488 9.79101 34.9004 10.1191 34.9004C10.7041 34.9004 11.3135 34.7475 11.9341 34.4417L29.2873 25.8046L24.2885 21.3672Z" fill="white"/>
</svg>
